<?xml version="1.0" standalone="no"?>
<!DOCTYPE svg PUBLIC "-//W3C//DTD SVG 20010904//EN"
 "http://www.w3.org/TR/2001/REC-SVG-20010904/DTD/svg10.dtd">
<svg version="1.0" xmlns="http://www.w3.org/2000/svg"
 width="990.000000pt" height="991.000000pt" viewBox="0 0 990.000000 991.000000"
 preserveAspectRatio="xMidYMid meet">
<metadata>
Created by potrace 1.16, written by Peter Selinger 2001-2019
</metadata>
<g transform="translate(0.000000,991.000000) scale(0.100000,-0.100000)"
fill="#3b82f6" stroke="none">
<path d="M7840 8580 c-265 -11 -526 -27 -720 -46 -1873 -176 -3358 -683 -4338
-1480 -148 -121 -438 -414 -558 -564 -456 -572 -713 -1162 -784 -1799 -14
-122 -14 -465 0 -601 63 -633 330 -1254 763 -1773 21 -25 36 -50 33 -56 -10
-16 -410 -299 -646 -456 -254 -170 -525 -339 -869 -542 -129 -76 -243 -149
-253 -163 -30 -41 -34 -92 -9 -142 26 -54 67 -80 128 -80 39 0 69 14 229 106
428 245 1022 628 1437 925 l198 142 74 -70 c331 -314 843 -608 1298 -745 287
-87 517 -125 807 -133 547 -16 1031 98 1529 358 1113 582 1860 1673 2250 3290
137 567 220 1144 272 1879 30 441 19 1497 -17 1637 -32 124 -108 214 -231 275
l-85 42 -151 2 c-84 1 -244 -2 -357 -6z m480 -303 c62 -41 69 -65 80 -268 13
-242 13 -975 0 -1220 -69 -1312 -296 -2357 -704 -3238 -347 -752 -820 -1309
-1446 -1706 -411 -260 -837 -405 -1310 -445 -668 -57 -1389 158 -1965 587
-128 96 -276 221 -282 239 -2 6 40 44 94 85 467 354 1203 998 1603 1403 l74
76 489 0 488 0 40 38 c67 62 65 146 -6 212 l-27 25 -344 3 c-189 1 -344 6
-344 10 0 4 61 73 136 152 216 231 1107 1237 1127 1273 64 118 -64 252 -188
195 -14 -6 -211 -221 -437 -477 -227 -256 -489 -549 -582 -651 -171 -188 -949
-970 -1005 -1010 l-31 -21 0 651 c0 708 2 683 -56 729 -58 46 -141 35 -194
-25 l-30 -35 0 -792 0 -793 -132 -115 c-243 -211 -520 -437 -781 -638 -93 -71
-110 -81 -120 -68 -7 8 -46 57 -88 108 -336 415 -552 903 -636 1439 -25 161
-25 618 0 768 55 335 140 599 286 889 264 527 647 976 1136 1329 751 544 1783
931 3055 1144 590 99 1325 165 1871 169 188 1 197 0 229 -22z"/>
<path d="M7406 7839 c-170 -10 -190 -14 -231 -50 -78 -69 -62 -189 30 -230 42
-19 54 -19 272 -8 157 8 238 16 260 26 81 37 101 163 35 226 -52 50 -86 53
-366 36z"/>
<path d="M6295 7715 c-479 -83 -786 -156 -1154 -277 -183 -60 -220 -85 -228
-161 -9 -82 28 -136 109 -158 35 -9 53 -6 161 30 361 119 743 210 1194 286
112 19 215 40 230 47 66 31 94 134 56 200 -24 39 -81 68 -135 67 -24 -1 -128
-16 -233 -34z"/>
<path d="M6508 3653 c-34 -22 -68 -82 -68 -123 0 -46 27 -97 64 -119 45 -27
315 -139 353 -147 51 -10 117 27 142 80 25 51 26 64 5 116 -21 52 -39 64 -223
143 -166 72 -221 82 -273 50z"/>
<path d="M6095 3016 c-17 -7 -43 -28 -58 -45 -22 -27 -27 -42 -27 -87 l0 -55
113 -122 c130 -140 192 -187 246 -187 70 0 136 56 141 120 6 76 5 79 -137 223
-165 167 -201 187 -278 153z"/>
<path d="M3843 2590 c-37 -22 -44 -34 -124 -222 -73 -171 -80 -196 -67 -247
16 -62 57 -94 125 -99 49 -3 64 0 93 20 30 20 46 49 112 203 82 192 92 239 63
296 -22 42 -71 69 -125 69 -27 0 -58 -8 -77 -20z"/>
<path d="M5392 2580 c-41 -25 -72 -76 -72 -119 0 -52 136 -385 171 -421 87
-86 239 -19 239 104 0 36 -113 333 -149 392 -37 60 -127 81 -189 44z"/>
<path d="M4635 2431 c-67 -40 -70 -53 -70 -286 0 -193 2 -213 20 -245 54 -93
188 -91 245 2 18 30 20 51 20 237 0 190 -1 206 -22 242 -37 66 -129 90 -193
50z"/>
</g>
</svg>
