<?xml version="1.0" standalone="no"?>
<!DOCTYPE svg PUBLIC "-//W3C//DTD SVG 20010904//EN"
 "http://www.w3.org/TR/2001/REC-SVG-20010904/DTD/svg10.dtd">
<svg version="1.0" xmlns="http://www.w3.org/2000/svg"
 width="990.000000pt" height="990.000000pt" viewBox="0 0 990.000000 990.000000"
 preserveAspectRatio="xMidYMid meet">
<metadata>
Created by potrace 1.16, written by Peter Selinger 2001-2019
</metadata>
<g transform="translate(0.000000,990.000000) scale(0.100000,-0.100000)"
fill="#3b82f6" stroke="none">
<path d="M2303 8715 c-120 -33 -239 -113 -310 -208 -27 -37 -196 -364 -415
-802 -289 -580 -373 -757 -388 -819 -19 -76 -20 -118 -20 -904 0 -903 -1 -880
60 -1002 16 -32 52 -82 79 -112 28 -31 51 -59 51 -63 0 -4 -22 -32 -50 -61
-54 -60 -103 -151 -125 -234 -22 -81 -22 -1079 0 -1160 22 -83 71 -174 125
-234 28 -29 50 -56 50 -59 0 -2 -20 -27 -45 -53 -54 -59 -109 -160 -130 -240
-22 -84 -22 -1081 0 -1164 42 -157 164 -306 305 -372 143 -68 -137 -63 3460
-63 2727 0 3284 2 3330 14 216 53 388 225 441 441 11 43 14 169 14 565 0 456
-2 517 -18 574 -24 87 -78 187 -132 243 -25 26 -45 50 -45 54 0 3 23 31 50 61
55 60 110 166 131 253 20 80 20 1040 0 1120 -21 87 -76 193 -131 253 -27 30
-50 58 -50 62 0 4 23 32 51 63 58 63 100 141 126 233 17 60 18 121 18 884 0
812 -1 821 -22 900 -28 101 -737 1528 -806 1622 -72 97 -191 176 -314 208 -84
22 -5209 21 -5290 0z m5269 -298 c31 -15 71 -44 88 -63 35 -40 753 -1470 768
-1530 6 -21 13 -58 16 -81 l6 -43 -3500 0 -3500 0 6 43 c3 23 10 60 16 81 13
54 730 1485 763 1524 35 42 101 80 156 91 24 5 1187 8 2584 7 l2540 -1 57 -28z
m873 -2627 c0 -604 0 -616 -21 -661 -30 -63 -79 -116 -138 -147 l-51 -27
-3285 0 -3285 0 -48 25 c-58 29 -112 86 -141 149 -21 45 -21 57 -24 650 -1
333 0 611 2 618 5 11 613 13 3498 11 l3493 -3 0 -615z m-168 -1158 c66 -35
110 -79 140 -140 l28 -57 0 -500 c0 -391 -3 -508 -13 -538 -23 -64 -85 -132
-149 -163 l-58 -29 -3275 0 -3275 0 -58 29 c-64 31 -126 99 -149 163 -19 54
-19 1011 0 1065 29 82 102 152 189 184 32 11 575 13 3308 11 l3270 -2 42 -23z
m-24 -1738 c63 -21 130 -83 164 -152 l28 -57 3 -473 c2 -403 1 -482 -13 -534
-27 -108 -104 -185 -211 -213 -52 -13 -422 -15 -3274 -15 -2852 0 -3222 2
-3274 15 -107 28 -184 105 -211 213 -14 52 -15 131 -13 534 l3 473 28 57 c16
32 48 75 73 97 87 76 -233 69 3390 70 2942 1 3265 -1 3307 -15z"/>
<path d="M2403 8130 c-92 -56 -95 -186 -4 -243 l36 -22 1935 0 1935 0 33 23
c42 30 62 70 62 124 0 54 -27 100 -73 121 -32 16 -183 17 -1964 17 -1893 0
-1929 0 -1960 -20z"/>
<path d="M6772 8130 c-93 -57 -94 -190 -1 -245 32 -19 52 -20 364 -20 324 0
331 0 366 22 91 57 88 187 -4 243 -30 19 -53 20 -362 20 -312 0 -332 -1 -363
-20z"/>
<path d="M7295 6093 c-163 -58 -270 -183 -298 -349 -30 -177 70 -371 234 -453
220 -110 479 -20 585 203 105 220 11 473 -213 579 -59 27 -81 32 -163 34 -72
3 -107 -1 -145 -14z m233 -272 c82 -58 96 -186 29 -260 -28 -30 -94 -61 -132
-61 -81 0 -163 74 -173 155 -5 50 17 122 46 148 59 54 168 62 230 18z"/>
<path d="M2120 5951 c-71 -38 -75 -50 -78 -264 -2 -178 -1 -194 18 -225 56
-90 180 -96 241 -11 23 32 24 43 27 212 3 165 2 180 -18 222 -16 32 -32 49
-64 64 -52 26 -81 26 -126 2z"/>
<path d="M2850 5953 c-19 -10 -45 -34 -58 -53 -23 -34 -23 -40 -20 -232 3
-194 3 -197 28 -223 53 -57 117 -70 180 -36 68 36 75 62 75 273 0 173 -2 189
-21 214 -50 67 -121 89 -184 57z"/>
<path d="M3585 5956 c-16 -7 -41 -26 -55 -41 -25 -26 -25 -29 -28 -226 -3
-188 -2 -202 18 -233 55 -91 198 -84 245 11 12 24 15 70 15 215 0 164 -2 186
-20 215 -37 61 -114 87 -175 59z"/>
<path d="M4315 5956 c-41 -18 -73 -56 -85 -97 -6 -19 -10 -104 -10 -189 0
-142 2 -160 23 -200 51 -102 187 -106 247 -8 18 30 20 51 20 213 0 197 -7 228
-61 268 -34 24 -96 31 -134 13z"/>
<path d="M5032 5950 c-70 -32 -82 -69 -82 -275 0 -192 8 -221 69 -262 69 -46
165 -19 203 57 15 29 18 63 18 210 0 205 -8 230 -80 268 -54 27 -73 27 -128 2z"/>
<path d="M5610 5802 c-46 -23 -73 -72 -72 -130 0 -48 19 -82 66 -116 27 -21
38 -21 511 -21 473 0 484 0 511 21 68 50 87 128 48 195 -40 70 -35 69 -559 69
-428 0 -473 -2 -505 -18z"/>
<path d="M7351 4359 c-225 -39 -392 -271 -354 -493 37 -217 211 -366 427 -366
133 0 228 41 318 137 187 201 145 515 -90 664 -82 52 -202 75 -301 58z m160
-274 c15 -8 41 -32 56 -52 24 -31 28 -46 28 -103 0 -57 -4 -72 -28 -103 -37
-49 -80 -70 -144 -70 -158 0 -232 200 -115 306 51 46 138 55 203 22z"/>
<path d="M2120 4202 c-19 -9 -45 -32 -57 -51 -22 -32 -23 -43 -23 -215 0 -198
7 -229 61 -269 69 -50 174 -22 210 56 16 36 19 66 19 207 0 152 -2 169 -22
210 -38 73 -115 99 -188 62z"/>
<path d="M2842 4200 c-66 -40 -72 -63 -72 -271 0 -177 1 -188 23 -220 60 -90
172 -88 241 5 19 25 21 41 21 214 0 177 -1 189 -23 223 -40 66 -126 88 -190
49z"/>
<path d="M3569 4199 c-65 -38 -69 -53 -69 -273 l0 -195 30 -35 c55 -62 139
-71 198 -21 49 41 54 65 50 273 -3 187 -3 191 -28 217 -54 58 -118 70 -181 34z"/>
<path d="M4300 4201 c-68 -36 -75 -62 -75 -271 0 -174 1 -187 22 -221 57 -91
187 -88 243 4 18 29 20 51 20 218 0 177 -1 188 -23 220 -43 64 -121 86 -187
50z"/>
<path d="M5031 4203 c-71 -37 -76 -53 -79 -258 -4 -206 3 -236 62 -278 42 -30
123 -31 163 -1 56 41 63 71 63 264 0 191 -7 223 -61 263 -38 28 -106 32 -148
10z"/>
<path d="M5605 4051 c-89 -54 -90 -188 -2 -241 31 -19 54 -20 512 -20 458 0
481 1 512 20 65 39 86 139 43 200 -44 61 -33 60 -557 60 -448 0 -480 -1 -508
-19z"/>
<path d="M7323 2605 c-222 -60 -363 -273 -326 -491 59 -341 472 -483 724 -247
221 207 170 566 -101 703 -98 49 -199 61 -297 35z m188 -261 c36 -18 75 -66
89 -110 39 -118 -65 -244 -190 -232 -67 7 -115 41 -146 105 -22 43 -25 61 -20
97 20 128 153 198 267 140z"/>
<path d="M2130 2463 c-8 -3 -26 -15 -38 -27 -48 -43 -52 -64 -52 -253 0 -201
8 -232 69 -267 68 -39 144 -21 195 48 20 26 21 41 21 220 0 213 -4 227 -68
266 -31 19 -93 25 -127 13z"/>
<path d="M2841 2452 c-63 -34 -71 -63 -71 -270 0 -202 5 -223 62 -263 42 -30
117 -31 155 -3 66 49 68 58 68 262 0 161 -2 192 -18 220 -37 67 -126 92 -196
54z"/>
<path d="M3563 2450 c-58 -35 -63 -58 -63 -267 0 -206 6 -230 66 -269 39 -26
113 -23 152 5 57 40 62 60 62 267 0 170 -2 190 -20 219 -38 62 -134 84 -197
45z"/>
<path d="M4295 2452 c-66 -41 -70 -57 -70 -269 0 -178 1 -194 21 -219 51 -69
127 -87 195 -48 61 35 69 66 69 267 0 191 -4 209 -54 256 -36 33 -118 40 -161
13z"/>
<path d="M5019 2447 c-61 -40 -69 -71 -69 -261 0 -149 2 -175 20 -211 49 -102
198 -105 251 -5 17 30 19 58 19 210 0 147 -3 181 -18 210 -24 48 -75 80 -127
80 -27 0 -54 -8 -76 -23z"/>
<path d="M5625 2316 c-112 -50 -119 -208 -12 -260 31 -14 89 -16 504 -16 438
0 471 1 503 19 47 25 73 72 72 129 0 48 -19 82 -66 116 -27 20 -40 21 -499 23
-378 2 -478 0 -502 -11z"/>
</g>
</svg>
