<?xml version="1.0" standalone="no"?>
<!DOCTYPE svg PUBLIC "-//W3C//DTD SVG 20010904//EN"
 "http://www.w3.org/TR/2001/REC-SVG-20010904/DTD/svg10.dtd">
<svg version="1.0" xmlns="http://www.w3.org/2000/svg"
 width="991.000000pt" height="991.000000pt" viewBox="0 0 991.000000 991.000000"
 preserveAspectRatio="xMidYMid meet">
<metadata>
Created by potrace 1.16, written by Peter Selinger 2001-2019
</metadata>
<g transform="translate(0.000000,991.000000) scale(0.100000,-0.100000)"
fill="#3b82f6" stroke="none">
<path d="M4857 9015 c-56 -53 -58 -64 -55 -330 3 -228 4 -245 24 -271 39 -53
71 -69 134 -69 66 0 99 18 138 75 21 32 22 40 22 274 0 226 -1 243 -21 275
-37 61 -56 70 -139 71 -67 0 -78 -3 -103 -25z"/>
<path d="M3334 8389 c-69 -20 -122 -117 -105 -191 11 -48 28 -69 174 -216 144
-145 194 -182 250 -182 111 0 192 109 158 212 -8 23 -65 88 -176 199 -188 188
-214 203 -301 178z"/>
<path d="M6485 8390 c-45 -14 -360 -330 -375 -376 -15 -46 -7 -109 18 -143 28
-39 91 -71 138 -71 59 0 108 37 270 202 116 118 142 151 151 186 32 126 -81
239 -202 202z"/>
<path d="M4770 7916 c-185 -33 -358 -101 -503 -197 -32 -22 -61 -39 -64 -39
-14 0 -159 -140 -210 -203 -32 -40 -68 -83 -80 -96 -47 -52 -148 -278 -178
-399 -50 -200 -56 -369 -20 -558 16 -85 61 -228 89 -281 9 -18 16 -34 16 -38
0 -3 -440 -5 -977 -5 -749 -1 -983 -4 -999 -13 -29 -17 -68 -50 -77 -64 -8
-12 -32 -134 -103 -523 -25 -135 -56 -301 -70 -370 -13 -69 -29 -163 -34 -210
-5 -47 -28 -182 -50 -300 -23 -118 -52 -276 -65 -350 -13 -74 -36 -196 -50
-270 -110 -573 -121 -667 -85 -725 35 -57 76 -69 241 -73 l147 -4 4 -141 c4
-120 9 -152 30 -208 40 -107 145 -227 243 -277 97 -49 136 -55 413 -60 179 -3
277 -1 308 7 89 23 134 78 134 166 0 60 -29 109 -81 135 -35 18 -60 20 -306
20 -308 0 -325 4 -378 80 -29 41 -30 49 -33 162 l-4 118 2931 0 2931 0 0 -113
c0 -109 -1 -115 -30 -161 -21 -32 -44 -53 -73 -66 -41 -19 -88 -20 -1880 -20
-2011 0 -1861 5 -1921 -59 -24 -25 -30 -42 -34 -88 -3 -48 0 -64 20 -92 53
-78 94 -90 301 -91 l147 0 0 -320 0 -320 -200 0 c-109 0 -223 -5 -252 -11
-137 -29 -294 -150 -353 -273 -44 -93 -57 -167 -53 -304 l3 -112 -363 0 c-382
0 -396 -1 -448 -47 -35 -31 -45 -59 -41 -122 4 -67 23 -103 70 -131 31 -20 68
-20 2177 -20 2123 0 2145 0 2178 20 49 30 72 75 71 140 -2 60 -11 84 -43 113
-52 46 -66 47 -448 47 l-363 0 3 112 c7 258 -82 425 -283 530 -97 50 -148 58
-373 58 l-197 0 3 320 3 319 1142 3 c1079 3 1145 4 1197 22 114 38 196 98 274
199 69 89 88 156 93 323 l5 142 152 3 c138 4 154 6 189 27 94 59 92 96 -33
752 -104 546 -161 864 -170 937 -5 45 -18 130 -30 190 -12 59 -43 227 -70 373
-77 416 -99 531 -107 543 -9 14 -48 47 -77 64 -16 9 -250 12 -998 13 -538 0
-978 2 -978 5 0 4 7 19 15 36 30 57 77 202 93 288 23 125 20 357 -6 481 -23
103 -45 172 -86 263 -14 31 -22 57 -18 57 4 0 2 4 -3 8 -6 4 -24 33 -40 65
-16 32 -62 97 -102 145 -71 84 -220 231 -235 232 -4 0 -39 21 -79 46 -125 81
-281 146 -429 179 -102 22 -343 28 -440 11z m425 -344 c44 -12 121 -43 172
-68 220 -112 377 -277 456 -480 67 -172 72 -195 72 -364 0 -168 -15 -250 -61
-344 -14 -27 -26 -57 -27 -66 -2 -10 -20 -47 -42 -84 l-38 -66 -767 0 -767 0
-38 66 c-22 37 -40 75 -42 85 -1 10 -12 36 -24 59 -38 72 -60 178 -66 310 -7
149 10 247 63 379 19 47 34 88 34 93 0 13 100 149 148 203 62 68 164 144 264
198 88 48 143 68 248 91 95 22 311 15 415 -12z m-1835 -1810 c0 -11 -16 -128
-35 -261 -19 -132 -35 -246 -35 -251 0 -7 -235 -10 -670 -10 -414 0 -670 4
-670 9 0 13 90 492 96 514 5 16 45 17 660 17 629 0 654 -1 654 -18z m1438
-254 l2 -268 -590 0 c-324 0 -590 3 -590 8 0 14 71 507 75 520 4 10 119 12
552 10 l548 -3 3 -267z m1464 17 c20 -137 37 -258 38 -267 0 -17 -35 -18 -590
-18 l-590 0 0 263 c0 145 3 267 7 270 3 4 252 6 552 5 l546 -3 37 -250z m1612
238 c7 -24 96 -500 96 -515 0 -4 -301 -8 -668 -8 l-668 0 -37 253 c-21 138
-37 260 -37 270 0 16 38 17 654 17 615 0 655 -1 660 -17z m-4627 -875 c-2 -18
-20 -138 -38 -265 l-33 -233 -689 0 -689 0 5 22 c8 30 54 305 68 408 6 47 14
88 16 93 2 4 311 7 685 7 l681 0 -6 -32z m1553 -233 l0 -265 -645 0 -646 0 5
63 c2 34 7 69 9 77 7 19 38 237 35 247 -1 5 2 38 6 76 l8 67 614 0 614 0 0
-265z m1554 218 c3 -27 8 -78 11 -114 3 -37 14 -125 25 -195 11 -71 20 -139
20 -151 l0 -23 -645 0 -645 0 0 265 0 265 614 0 614 0 6 -47z m1693 -43 c25
-161 65 -399 70 -419 l5 -21 -688 0 -689 0 -34 233 c-18 127 -36 247 -38 265
l-6 32 684 -2 683 -3 13 -85z m-4921 -797 c-11 -54 -66 -453 -66 -478 l0 -25
-710 0 c-390 0 -710 1 -710 3 0 5 90 484 95 505 l5 22 696 0 696 0 -6 -27z
m1674 -238 l0 -265 -710 0 -710 0 4 23 c3 12 19 119 36 237 17 118 33 227 36
243 l6 27 669 0 669 0 0 -265z m1664 238 c3 -16 19 -125 36 -243 17 -118 33
-225 36 -237 l4 -23 -710 0 -710 0 0 265 0 265 669 0 669 0 6 -27z m1720 15
c2 -7 23 -114 46 -238 23 -124 44 -237 47 -252 l6 -28 -712 0 -711 0 0 28 c0
24 -50 383 -65 470 l-6 32 696 0 c548 0 696 -3 699 -12z m-3004 -1858 l0 -320
-220 0 -220 0 0 320 0 320 220 0 220 0 0 -320z m711 -651 c53 -18 99 -58 120
-103 15 -32 19 -65 19 -153 l0 -113 -1070 0 -1070 0 0 115 c0 156 21 199 120
244 44 20 62 21 946 21 648 0 911 -3 935 -11z"/>
<path d="M2649 6797 c-18 -12 -44 -38 -57 -57 -20 -29 -23 -44 -20 -93 4 -46
10 -63 34 -88 54 -58 62 -59 314 -59 255 0 276 4 323 60 25 29 27 39 26 101
-1 39 -6 69 -12 69 -6 0 -8 2 -5 5 7 7 -46 61 -72 75 -11 6 -120 10 -258 10
-232 0 -240 -1 -273 -23z"/>
<path d="M6738 6810 c-26 -16 -76 -68 -70 -75 3 -3 1 -5 -5 -5 -6 0 -11 -30
-12 -69 -1 -61 1 -72 25 -100 49 -59 60 -61 320 -61 220 0 239 1 273 21 108
60 109 217 1 278 -36 20 -52 21 -276 21 -138 0 -246 -5 -256 -10z"/>
<path d="M3303 2814 c-129 -85 -65 -294 89 -294 27 0 59 5 71 12 28 14 76 66
69 73 -3 3 0 5 7 5 6 0 11 6 10 13 -1 6 1 20 6 30 11 25 -1 87 -23 116 -34 46
-69 65 -129 69 -50 3 -64 0 -100 -24z"/>
</g>
</svg>
