<?xml version="1.0" standalone="no"?>
<!DOCTYPE svg PUBLIC "-//W3C//DTD SVG 20010904//EN"
 "http://www.w3.org/TR/2001/REC-SVG-20010904/DTD/svg10.dtd">
<svg version="1.0" xmlns="http://www.w3.org/2000/svg"
 width="991.000000pt" height="991.000000pt" viewBox="0 0 991.000000 991.000000"
 preserveAspectRatio="xMidYMid meet">
<metadata>
Created by potrace 1.16, written by Peter Selinger 2001-2019
</metadata>
<g transform="translate(0.000000,991.000000) scale(0.100000,-0.100000)"
fill="#3b82f6" stroke="none">
<path d="M916 8429 c-149 -35 -281 -177 -315 -337 -15 -71 -16 -6194 -1 -6273
27 -139 114 -255 239 -317 l75 -37 4015 -3 c3717 -3 4021 -2 4079 14 157 41
280 177 312 344 13 71 14 6171 0 6254 -23 140 -119 268 -247 329 l-68 32
-4025 2 c-2403 0 -4041 -3 -4064 -8z m8055 -302 c72 -48 69 -15 69 -759 l0
-668 -4080 0 -4080 0 0 668 c0 744 -3 711 69 759 l34 23 3977 0 3977 0 34 -23z
m67 -4001 l-3 -2285 -21 -28 c-12 -15 -36 -37 -55 -48 -34 -20 -52 -20 -4005
-20 l-3971 0 -37 29 c-71 54 -66 -142 -66 2366 l0 2270 4080 0 4080 0 -2
-2284z"/>
<path d="M4264 7836 c-68 -32 -115 -74 -144 -133 -24 -47 -25 -53 -25 -278 l0
-230 31 -55 c17 -30 50 -70 73 -87 88 -68 -71 -63 2236 -61 l2090 3 46 21 c63
29 110 74 139 131 24 46 25 57 28 261 3 174 0 222 -13 261 -22 69 -78 128
-149 162 l-61 29 -2100 0 -2100 0 -51 -24z m4196 -411 l0 -145 -2040 0 -2040
0 0 145 0 145 2040 0 2040 0 0 -145z"/>
<path d="M1413 7709 c-94 -18 -170 -78 -211 -168 -21 -46 -24 -64 -20 -130 5
-88 22 -128 81 -189 132 -136 374 -96 463 78 10 21 19 66 22 111 4 66 1 84
-20 130 -56 122 -188 193 -315 168z"/>
<path d="M2289 7709 c-87 -14 -163 -70 -207 -153 -22 -43 -27 -64 -27 -131 0
-68 5 -88 27 -132 89 -169 325 -206 460 -70 122 122 109 326 -27 429 -67 52
-143 71 -226 57z"/>
<path d="M3162 7709 c-63 -12 -141 -58 -175 -104 -45 -61 -60 -104 -60 -175
-2 -160 123 -290 279 -290 122 0 215 57 265 164 100 211 -80 446 -309 405z"/>
<path d="M1265 2606 c-17 -7 -43 -28 -58 -45 l-27 -33 0 -196 c0 -175 2 -200
19 -228 38 -63 144 -83 204 -38 53 40 57 57 57 261 0 169 -2 191 -20 220 -37
61 -114 87 -175 59z"/>
<path d="M1985 2601 c-74 -38 -80 -59 -80 -276 0 -183 1 -191 23 -223 62 -87
186 -81 242 10 18 30 20 51 20 213 0 152 -3 185 -18 214 -36 73 -115 98 -187
62z"/>
<path d="M2707 2599 c-65 -34 -77 -74 -77 -274 0 -142 3 -176 18 -205 53 -106
201 -106 254 0 15 29 18 63 18 208 0 202 -10 236 -80 272 -49 25 -84 25 -133
-1z"/>
<path d="M3435 2597 c-68 -38 -75 -65 -75 -272 0 -162 2 -183 20 -213 60 -98
201 -94 252 8 15 29 18 63 18 204 0 152 -2 174 -21 213 -14 30 -33 50 -60 63
-50 26 -85 25 -134 -3z"/>
<path d="M4170 2603 c-19 -10 -45 -34 -58 -53 -23 -34 -23 -40 -20 -232 l3
-198 37 -36 c46 -46 112 -57 168 -26 68 37 75 63 75 274 0 173 -2 189 -21 214
-50 67 -121 89 -184 57z"/>
<path d="M4900 2603 c-19 -10 -45 -33 -57 -52 -22 -32 -23 -43 -23 -225 0
-169 2 -195 19 -222 51 -83 189 -83 241 1 18 29 20 49 20 221 0 170 -2 192
-20 221 -39 65 -117 89 -180 56z"/>
<path d="M5625 2601 c-74 -38 -80 -60 -80 -271 0 -209 7 -235 75 -271 63 -34
127 -21 180 36 25 26 25 29 28 218 2 168 0 196 -15 226 -38 73 -116 98 -188
62z"/>
<path d="M6347 2599 c-65 -34 -77 -74 -77 -274 0 -142 3 -176 18 -205 51 -102
192 -106 252 -8 18 30 20 51 20 213 0 206 -8 233 -76 272 -48 28 -87 28 -137
2z"/>
<path d="M7076 2597 c-68 -39 -76 -66 -76 -267 0 -147 3 -181 18 -210 53 -106
201 -106 254 0 15 29 18 63 18 205 0 202 -11 240 -79 274 -51 27 -86 26 -135
-2z"/>
<path d="M7810 2602 c-19 -9 -45 -33 -58 -52 -23 -34 -23 -40 -20 -232 3 -194
3 -197 28 -223 53 -57 117 -70 180 -36 68 36 75 62 75 271 0 212 -7 235 -80
270 -51 25 -80 25 -125 2z"/>
<path d="M8540 2603 c-19 -10 -45 -33 -57 -52 -22 -32 -23 -43 -23 -223 0
-205 4 -222 57 -262 60 -45 166 -25 204 38 17 27 19 53 19 221 0 171 -2 193
-20 222 -39 65 -117 89 -180 56z"/>
</g>
</svg>
